<?xml version="1.0" encoding="UTF-8"?>
<svg version="1.1" xmlns="http://www.w3.org/2000/svg" width="512" height="512">
<path d="M0 0 C1.24655617 -0.00956978 1.24655617 -0.00956978 2.51829529 -0.01933289 C3.41726028 -0.02044571 4.31622528 -0.02155853 5.24243164 -0.02270508 C6.16472061 -0.02603348 7.08700958 -0.02936188 8.0372467 -0.03279114 C9.98999533 -0.03785903 11.94275262 -0.04019951 13.89550781 -0.04003906 C16.88694493 -0.0422249 19.87801298 -0.06038023 22.86938477 -0.0793457 C24.76456579 -0.08227975 26.65974858 -0.08426447 28.55493164 -0.08520508 C29.45187241 -0.09239059 30.34881317 -0.09957611 31.27293396 -0.10697937 C32.52421837 -0.10236443 32.52421837 -0.10236443 33.80078125 -0.09765625 C34.53421249 -0.09908127 35.26764374 -0.10050629 36.02330017 -0.10197449 C37.96508789 0.14526367 37.96508789 0.14526367 40.96508789 2.14526367 C42.17145439 5.76436318 42.09697845 9.0634961 42.07861328 12.82958984 C42.07875931 13.61031357 42.07890533 14.39103729 42.07905579 15.19541931 C42.07835903 17.77638526 42.07057771 20.35727908 42.06274414 22.93823242 C42.06087912 24.72756409 42.05945561 26.51689627 42.05845642 28.30622864 C42.05463788 33.01623951 42.04481322 37.72621957 42.03375244 42.43621826 C42.0235241 47.24222395 42.01895575 52.04823461 42.01391602 56.85424805 C42.00319038 66.28460013 41.98612188 75.71492934 41.96508789 85.14526367 C42.70777011 85.1415765 43.45045233 85.13788933 44.21564007 85.13409042 C62.28471251 85.04576238 80.35374187 84.97956528 98.42298412 84.93801498 C107.16113728 84.9173876 115.89914635 84.8892637 124.63720703 84.84350586 C132.25309463 84.8036434 139.86887789 84.77783214 147.48486692 84.76890969 C151.51771894 84.76369391 155.55027243 84.75143153 159.58302879 84.72234344 C163.37924373 84.6951835 167.17503731 84.68681971 170.97134018 84.69283295 C172.36412534 84.69173295 173.75692466 84.68378208 175.14962578 84.66844177 C177.05266484 84.64850926 178.95593023 84.65571646 180.85905457 84.66424561 C182.45606091 84.65871485 182.45606091 84.65871485 184.08533001 84.65307236 C187.68977717 85.26912331 189.34789504 86.64422346 191.96508789 89.14526367 C194.7478471 93.65068334 194.59520419 99.02031774 193.96508789 104.14526367 C192.65258789 107.27026367 192.65258789 107.27026367 189.96508789 109.14526367 C186.26057833 109.54503089 182.6748323 109.43308867 178.96508789 109.14526367 C178.99989258 110.17006836 179.03469727 111.19487305 179.07055664 112.25073242 C179.09870824 113.61139303 179.12600693 114.97207147 179.15258789 116.33276367 C179.19029297 117.34306641 179.19029297 117.34306641 179.22875977 118.3737793 C179.29415971 122.84277564 178.72138854 125.60144855 175.96508789 129.14526367 C175.30508789 129.47526367 174.64508789 129.80526367 173.96508789 130.14526367 C173.04134518 132.88969209 172.78842927 135.56328659 172.62619019 138.44224548 C172.57605019 139.29757999 172.52591019 140.15291451 172.47425079 141.03416824 C172.42337059 141.96793667 172.37249039 142.90170509 172.32006836 143.86376953 C172.26273277 144.85811886 172.20539719 145.85246819 172.14632416 146.87694931 C172.02123411 149.05305701 171.89786419 151.2292641 171.7759819 153.40555382 C171.57892222 156.91990772 171.37702608 160.43395352 171.17373657 163.94795227 C170.88094692 169.00987301 170.58946002 174.07186606 170.29882812 179.13391113 C165.72413716 258.59827099 160.22825298 337.96943326 151.96508789 417.14526367 C151.83187134 418.42263397 151.69865479 419.70000427 151.56140137 421.01608276 C151.17095079 424.72781169 150.77293885 428.43863235 150.37133789 432.14916992 C150.25542297 433.24319122 150.13950806 434.33721252 150.02008057 435.46438599 C148.01530897 453.63698776 142.37505513 469.41763582 129.96508789 483.14526367 C129.33860352 483.85295898 128.71211914 484.5606543 128.06665039 485.28979492 C108.23166412 506.4606068 73.41044155 511.34003717 45.69467163 512.25299072 C42.06449548 512.30933642 38.43552637 512.33615835 34.80493164 512.34838867 C34.14138735 512.35121605 33.47784306 512.35404343 32.79419136 512.35695648 C29.26936593 512.37185223 25.74458027 512.38113729 22.21972656 512.38549805 C19.36835665 512.38984403 16.51729593 512.40359726 13.66601562 512.42651367 C-22.15806297 512.70835567 -65.01592477 512.44073069 -92.72241211 486.42260742 C-107.54512074 471.82524402 -113.45269415 455.48765847 -115.97241211 435.17260742 C-116.05723028 434.50012592 -116.14204845 433.82764442 -116.22943687 433.1347847 C-118.24617211 417.12798297 -119.84751307 401.08255412 -121.34741211 385.02026367 C-121.42003265 384.24666 -121.4926532 383.47305634 -121.56747437 382.67601013 C-124.1393513 355.26937019 -126.44537399 327.84280292 -128.53491211 300.39526367 C-128.60631031 299.45843498 -128.67770851 298.52160629 -128.75127029 297.55638885 C-130.68255817 272.12649917 -132.34010829 246.68392631 -133.80666733 221.22331524 C-133.92508471 219.168738 -134.04392222 217.11418544 -134.16287231 215.05963898 C-134.94136208 201.60596926 -135.70784908 188.15186637 -136.42900467 174.69498825 C-136.6988183 169.70015542 -136.97893328 164.7059329 -137.26110077 159.71178436 C-137.39052412 157.37362135 -137.51502044 155.03517988 -137.63434601 152.6964798 C-137.7983538 149.48654662 -137.97870676 146.27792382 -138.1628418 143.0690918 C-138.20653145 142.12956791 -138.2502211 141.19004402 -138.29523468 140.22204971 C-138.65358946 134.36035526 -139.65215161 130.74463877 -143.71069336 126.31713867 C-145.65723524 123.12458031 -145.35566899 120.01028374 -145.22241211 116.39526367 C-145.20887695 115.69788086 -145.1953418 115.00049805 -145.18139648 114.28198242 C-145.1462066 112.56940826 -145.09240366 110.85723426 -145.03491211 109.14526367 C-145.78256836 109.20327148 -146.53022461 109.2612793 -147.30053711 109.32104492 C-155.26029594 109.68569356 -155.26029594 109.68569356 -158.72241211 107.27026367 C-161.08485976 101.64538832 -160.85522958 96.40113671 -158.78491211 90.70776367 C-156.98293516 88.06915457 -155.75436973 86.78120074 -153.03491211 85.14526367 C-150.27820206 84.77612019 -150.27820206 84.77612019 -147.0491333 84.78450012 C-145.82358231 84.78037613 -144.59803131 84.77625214 -143.33534241 84.77200317 C-141.98031395 84.78261984 -140.62528773 84.79352426 -139.27026367 84.8046875 C-137.84112058 84.80553386 -136.41197619 84.80505845 -134.98283386 84.80335999 C-131.10498095 84.80249896 -127.22740621 84.82014189 -123.34961796 84.84108186 C-119.29638643 84.85983088 -115.24314858 84.8615977 -111.18988037 84.86515808 C-103.51531194 84.87448377 -95.84087166 84.89910462 -88.16635966 84.92920655 C-79.42884542 84.96273427 -70.69132508 84.97923247 -61.95376253 84.99429286 C-43.98073973 85.02565374 -26.00783622 85.07842441 -8.03491211 85.14526367 C-8.03935333 84.15190002 -8.04379456 83.15853638 -8.04837036 82.1350708 C-8.08890103 72.77686325 -8.11888911 63.41867349 -8.13853645 54.0603981 C-8.14897687 49.2491312 -8.16314083 44.43793512 -8.18579102 39.62670898 C-8.20751012 34.9842433 -8.21947879 30.34184576 -8.2246666 25.69933319 C-8.22836402 23.92749712 -8.23558409 22.15566481 -8.24637222 20.38385773 C-8.26087474 17.90352801 -8.26289057 15.42348048 -8.26196289 12.94311523 C-8.26915344 12.20943726 -8.27634399 11.47575928 -8.28375244 10.71984863 C-8.26891717 7.05798245 -8.18586451 4.19532706 -6.03491211 1.14526367 C-3.76885723 0.01223623 -2.515464 0.0130876 0 0 Z " fill="#FDD782" transform="translate(239.034912109375,-0.145263671875)"/>
<path d="M0 0 C11.22 0 22.44 0 34 0 C34 28.05 34 56.1 34 85 C44.80492187 84.98839844 55.60984375 84.97679688 66.7421875 84.96484375 C73.56901065 84.95973693 80.39583243 84.95488189 87.22265625 84.95117188 C98.06917797 84.94523018 108.91569194 84.93823209 119.76220703 84.92456055 C127.66043132 84.91460992 135.55864935 84.90814566 143.45687973 84.90591151 C147.6409782 84.90460505 151.82505873 84.90152325 156.00915146 84.89426994 C159.94396372 84.88750377 163.87875059 84.88538427 167.81356812 84.88689232 C169.2608059 84.88661626 170.70804449 84.88461467 172.15527725 84.88079453 C174.12514895 84.87584805 176.09503414 84.87760462 178.06491089 84.87974548 C179.16921888 84.87882369 180.27352688 84.8779019 181.41129875 84.87695217 C184 85 184 85 186 86 C186 88.97 186 91.94 186 95 C181.38 95 176.76 95 172 95 C172.05800781 96.31355469 172.11601562 97.62710938 172.17578125 98.98046875 C172.22269048 100.71611023 172.26818939 102.45179023 172.3125 104.1875 C172.35439453 105.05181641 172.39628906 105.91613281 172.43945312 106.80664062 C172.45556641 107.64775391 172.47167969 108.48886719 172.48828125 109.35546875 C172.51446533 110.12528076 172.54064941 110.89509277 172.56762695 111.68823242 C171.64542469 115.44407468 170.10178712 116.68264048 167 119 C163.06125394 119.75365101 159.16342948 119.66116587 155.16383362 119.61473083 C153.95097984 119.62041409 152.73812606 119.62609735 151.48851913 119.63195282 C148.12460886 119.64263996 144.76212906 119.63088702 141.39835823 119.6096462 C137.7697845 119.59216845 134.14128681 119.60353324 130.51269531 119.61131287 C123.40517773 119.6219897 116.29795622 119.60602899 109.19048376 119.5811746 C100.91428401 119.5532556 92.63814436 119.55190165 84.36190533 119.55173159 C69.59464105 119.55054393 54.8275128 119.52556336 40.06030273 119.48706055 C25.73020801 119.44972159 11.40021221 119.42846554 -2.92993164 119.42553711 C-4.25357912 119.42526289 -4.25357912 119.42526289 -5.60396694 119.42498314 C-6.9253225 119.42471468 -6.9253225 119.42471468 -8.27337211 119.4244408 C-10.0470142 119.42407538 -11.82065628 119.42370301 -13.59429836 119.42332363 C-14.46899291 119.42313812 -15.34368747 119.4229526 -16.24488791 119.42276147 C-29.8992837 119.41919033 -43.5536642 119.40073787 -57.20804445 119.38083039 C-62.15709348 119.37380952 -67.10613888 119.36902581 -72.05519181 119.36586904 C-79.90649119 119.36081812 -87.75772174 119.34938077 -95.60898571 119.32456874 C-99.19652694 119.31335225 -102.78400064 119.30523204 -106.37156105 119.30570221 C-110.26005187 119.30606752 -114.14839323 119.29092209 -118.03684998 119.27415466 C-119.17157397 119.27656975 -120.30629797 119.27898483 -121.47540754 119.2814731 C-131.50369564 119.21356658 -131.50369564 119.21356658 -136 117 C-138.10209857 113.84685215 -138.2434761 113.13896919 -138.1953125 109.55078125 C-138.18886719 108.70322266 -138.18242187 107.85566406 -138.17578125 106.98242188 C-138.15902344 106.10134766 -138.14226562 105.22027344 -138.125 104.3125 C-138.11597656 103.41982422 -138.10695313 102.52714844 -138.09765625 101.60742188 C-138.07409915 99.40483334 -138.03822844 97.20238275 -138 95 C-142.62 95 -147.24 95 -152 95 C-152 92.03 -152 89.06 -152 86 C-149.27055516 84.63527758 -147.12150984 84.87719407 -144.06491089 84.87974548 C-142.80003845 84.87837082 -141.53516602 84.87699615 -140.23196411 84.87557983 C-138.8224485 84.87911922 -137.41293312 84.88275403 -136.00341797 84.88647461 C-134.52530926 84.88675656 -133.04720042 84.8865986 -131.5690918 84.8860321 C-127.5486651 84.88574442 -123.52826805 84.89163649 -119.50784826 84.89860606 C-115.30911756 84.9048444 -111.11038623 84.90544378 -106.91165161 84.90663147 C-98.95728538 84.90974336 -91.00293285 84.91795485 -83.04857266 84.92798096 C-72.30229078 84.94123302 -61.55600517 84.94664315 -50.80971718 84.95248318 C-33.87313452 84.96189483 -16.93658077 84.98181469 0 85 C0 56.95 0 28.9 0 0 Z " fill="#FEFEFD" transform="translate(239,7)"/>
<path d="M0 0 C1.24655617 -0.00956978 1.24655617 -0.00956978 2.51829529 -0.01933289 C3.41726028 -0.02044571 4.31622528 -0.02155853 5.24243164 -0.02270508 C6.16472061 -0.02603348 7.08700958 -0.02936188 8.0372467 -0.03279114 C9.98999533 -0.03785903 11.94275262 -0.04019951 13.89550781 -0.04003906 C16.88694493 -0.0422249 19.87801298 -0.06038023 22.86938477 -0.0793457 C24.76456579 -0.08227975 26.65974858 -0.08426447 28.55493164 -0.08520508 C29.45187241 -0.09239059 30.34881317 -0.09957611 31.27293396 -0.10697937 C32.52421837 -0.10236443 32.52421837 -0.10236443 33.80078125 -0.09765625 C34.53421249 -0.09908127 35.26764374 -0.10050629 36.02330017 -0.10197449 C37.96508789 0.14526367 37.96508789 0.14526367 40.96508789 2.14526367 C42.17145439 5.76436318 42.09697845 9.0634961 42.07861328 12.82958984 C42.07875931 13.61031357 42.07890533 14.39103729 42.07905579 15.19541931 C42.07835903 17.77638526 42.07057771 20.35727908 42.06274414 22.93823242 C42.06087912 24.72756409 42.05945561 26.51689627 42.05845642 28.30622864 C42.05463788 33.01623951 42.04481322 37.72621957 42.03375244 42.43621826 C42.0235241 47.24222395 42.01895575 52.04823461 42.01391602 56.85424805 C42.00319038 66.28460013 41.98612188 75.71492934 41.96508789 85.14526367 C42.70777011 85.1415765 43.45045233 85.13788933 44.21564007 85.13409042 C62.28471251 85.04576238 80.35374187 84.97956528 98.42298412 84.93801498 C107.16113728 84.9173876 115.89914635 84.8892637 124.63720703 84.84350586 C132.25309463 84.8036434 139.86887789 84.77783214 147.48486692 84.76890969 C151.51771894 84.76369391 155.55027243 84.75143153 159.58302879 84.72234344 C163.37924373 84.6951835 167.17503731 84.68681971 170.97134018 84.69283295 C172.36412534 84.69173295 173.75692466 84.68378208 175.14962578 84.66844177 C177.05266484 84.64850926 178.95593023 84.65571646 180.85905457 84.66424561 C182.45606091 84.65871485 182.45606091 84.65871485 184.08533001 84.65307236 C187.68977717 85.26912331 189.34789504 86.64422346 191.96508789 89.14526367 C194.7478471 93.65068334 194.59520419 99.02031774 193.96508789 104.14526367 C192.65258789 107.27026367 192.65258789 107.27026367 189.96508789 109.14526367 C186.26057833 109.54503089 182.6748323 109.43308867 178.96508789 109.14526367 C178.99989258 110.17006836 179.03469727 111.19487305 179.07055664 112.25073242 C179.09870824 113.61139303 179.12600693 114.97207147 179.15258789 116.33276367 C179.19029297 117.34306641 179.19029297 117.34306641 179.22875977 118.3737793 C179.29415971 122.84277564 178.72138854 125.60144855 175.96508789 129.14526367 C175.30508789 129.47526367 174.64508789 129.80526367 173.96508789 130.14526367 C173.04134518 132.88969209 172.78842927 135.56328659 172.62619019 138.44224548 C172.57605019 139.29757999 172.52591019 140.15291451 172.47425079 141.03416824 C172.42337059 141.96793667 172.37249039 142.90170509 172.32006836 143.86376953 C172.26273277 144.85811886 172.20539719 145.85246819 172.14632416 146.87694931 C172.02123411 149.05305701 171.89786419 151.2292641 171.7759819 153.40555382 C171.57892222 156.91990772 171.37702608 160.43395352 171.17373657 163.94795227 C170.88094692 169.00987301 170.58946002 174.07186606 170.29882812 179.13391113 C165.72413716 258.59827099 160.22825298 337.96943326 151.96508789 417.14526367 C151.83187134 418.42263397 151.69865479 419.70000427 151.56140137 421.01608276 C151.17095079 424.72781169 150.77293885 428.43863235 150.37133789 432.14916992 C150.25542297 433.24319122 150.13950806 434.33721252 150.02008057 435.46438599 C148.01530897 453.63698776 142.37505513 469.41763582 129.96508789 483.14526367 C129.33860352 483.85295898 128.71211914 484.5606543 128.06665039 485.28979492 C108.23166412 506.4606068 73.41044155 511.34003717 45.69467163 512.25299072 C42.06449548 512.30933642 38.43552637 512.33615835 34.80493164 512.34838867 C34.14138735 512.35121605 33.47784306 512.35404343 32.79419136 512.35695648 C29.26936593 512.37185223 25.74458027 512.38113729 22.21972656 512.38549805 C19.36835665 512.38984403 16.51729593 512.40359726 13.66601562 512.42651367 C-22.15806297 512.70835567 -65.01592477 512.44073069 -92.72241211 486.42260742 C-107.54512074 471.82524402 -113.45269415 455.48765847 -115.97241211 435.17260742 C-116.05723028 434.50012592 -116.14204845 433.82764442 -116.22943687 433.1347847 C-118.24617211 417.12798297 -119.84751307 401.08255412 -121.34741211 385.02026367 C-121.42003265 384.24666 -121.4926532 383.47305634 -121.56747437 382.67601013 C-124.1393513 355.26937019 -126.44537399 327.84280292 -128.53491211 300.39526367 C-128.60631031 299.45843498 -128.67770851 298.52160629 -128.75127029 297.55638885 C-130.68255817 272.12649917 -132.34010829 246.68392631 -133.80666733 221.22331524 C-133.92508471 219.168738 -134.04392222 217.11418544 -134.16287231 215.05963898 C-134.94136208 201.60596926 -135.70784908 188.15186637 -136.42900467 174.69498825 C-136.6988183 169.70015542 -136.97893328 164.7059329 -137.26110077 159.71178436 C-137.39052412 157.37362135 -137.51502044 155.03517988 -137.63434601 152.6964798 C-137.7983538 149.48654662 -137.97870676 146.27792382 -138.1628418 143.0690918 C-138.20653145 142.12956791 -138.2502211 141.19004402 -138.29523468 140.22204971 C-138.65358946 134.36035526 -139.65215161 130.74463877 -143.71069336 126.31713867 C-145.65723524 123.12458031 -145.35566899 120.01028374 -145.22241211 116.39526367 C-145.20887695 115.69788086 -145.1953418 115.00049805 -145.18139648 114.28198242 C-145.1462066 112.56940826 -145.09240366 110.85723426 -145.03491211 109.14526367 C-145.78256836 109.20327148 -146.53022461 109.2612793 -147.30053711 109.32104492 C-155.26029594 109.68569356 -155.26029594 109.68569356 -158.72241211 107.27026367 C-161.08485976 101.64538832 -160.85522958 96.40113671 -158.78491211 90.70776367 C-156.98293516 88.06915457 -155.75436973 86.78120074 -153.03491211 85.14526367 C-150.27820206 84.77612019 -150.27820206 84.77612019 -147.0491333 84.78450012 C-145.82358231 84.78037613 -144.59803131 84.77625214 -143.33534241 84.77200317 C-141.98031395 84.78261984 -140.62528773 84.79352426 -139.27026367 84.8046875 C-137.84112058 84.80553386 -136.41197619 84.80505845 -134.98283386 84.80335999 C-131.10498095 84.80249896 -127.22740621 84.82014189 -123.34961796 84.84108186 C-119.29638643 84.85983088 -115.24314858 84.8615977 -111.18988037 84.86515808 C-103.51531194 84.87448377 -95.84087166 84.89910462 -88.16635966 84.92920655 C-79.42884542 84.96273427 -70.69132508 84.97923247 -61.95376253 84.99429286 C-43.98073973 85.02565374 -26.00783622 85.07842441 -8.03491211 85.14526367 C-8.03935333 84.15190002 -8.04379456 83.15853638 -8.04837036 82.1350708 C-8.08890103 72.77686325 -8.11888911 63.41867349 -8.13853645 54.0603981 C-8.14897687 49.2491312 -8.16314083 44.43793512 -8.18579102 39.62670898 C-8.20751012 34.9842433 -8.21947879 30.34184576 -8.2246666 25.69933319 C-8.22836402 23.92749712 -8.23558409 22.15566481 -8.24637222 20.38385773 C-8.26087474 17.90352801 -8.26289057 15.42348048 -8.26196289 12.94311523 C-8.26915344 12.20943726 -8.27634399 11.47575928 -8.28375244 10.71984863 C-8.26891717 7.05798245 -8.18586451 4.19532706 -6.03491211 1.14526367 C-3.76885723 0.01223623 -2.515464 0.0130876 0 0 Z M-0.03491211 7.14526367 C-0.03491211 35.19526367 -0.03491211 63.24526367 -0.03491211 92.14526367 C-16.24229492 92.12786133 -16.24229492 92.12786133 -32.77709961 92.11010742 C-39.60392276 92.10500061 -46.43074454 92.10014556 -53.25756836 92.09643555 C-64.10409008 92.09049385 -74.95060405 92.08349576 -85.79711914 92.06982422 C-93.69534343 92.05987359 -101.59356146 92.05340934 -109.49179184 92.05117518 C-113.6758903 92.04986872 -117.85997084 92.04678692 -122.04406357 92.03953362 C-125.97887583 92.03276744 -129.9136627 92.03064794 -133.84848022 92.03215599 C-135.295718 92.03187993 -136.7429566 92.02987834 -138.19018936 92.0260582 C-140.16006106 92.02111173 -142.12994625 92.02286829 -144.099823 92.02500916 C-145.75628499 92.02362647 -145.75628499 92.02362647 -147.44621086 92.02221584 C-150.02083332 91.96978982 -150.02083332 91.96978982 -152.03491211 93.14526367 C-152.03491211 96.11526367 -152.03491211 99.08526367 -152.03491211 102.14526367 C-147.41491211 102.14526367 -142.79491211 102.14526367 -138.03491211 102.14526367 C-138.10452148 104.1155957 -138.10452148 104.1155957 -138.17553711 106.12573242 C-138.21306477 107.86138671 -138.24946386 109.59706567 -138.28491211 111.33276367 C-138.31842773 112.19708008 -138.35194336 113.06139648 -138.38647461 113.9519043 C-138.45134723 118.18484304 -138.3927077 120.53594084 -136.20678711 124.25854492 C-134.13693761 126.4731681 -134.13693761 126.4731681 -131.03491211 126.14526367 C-131.0502298 127.45177887 -131.06554749 128.75829407 -131.08132935 130.10440063 C-131.19487623 144.26001793 -130.60665946 158.2945973 -129.71459961 172.41870117 C-129.57362926 174.72544075 -129.43313399 177.03220939 -129.29307556 179.33900452 C-128.91879517 185.4677363 -128.53523033 191.59585042 -128.14880753 197.72382736 C-127.90839952 201.54430118 -127.6703461 205.36491513 -127.43295288 209.18557739 C-123.88962037 266.15057823 -120.28315556 323.16796462 -114.55444336 379.96362305 C-114.06005721 384.86772285 -113.5849065 389.77359691 -113.11058044 394.67967224 C-112.67749613 399.14287774 -112.23718004 403.60534949 -111.79495239 408.06765747 C-111.58421349 410.20098755 -111.37537055 412.334506 -111.16867065 414.4682312 C-108.70418109 439.8027166 -105.71475366 464.77305279 -86.03491211 483.14526367 C-57.45060651 506.02771304 -17.4463397 505.51705196 17.40258789 505.58276367 C18.62177917 505.58884644 19.84097046 505.5949292 21.09710693 505.60119629 C56.14559199 505.71548547 96.59422938 504.64683504 123.61352539 479.55151367 C137.62132487 465.21795141 141.9124612 446.57745742 143.89868164 427.31323242 C144.0668608 425.74038756 144.23527905 424.16756825 144.40391541 422.59477234 C146.45345128 403.22649696 148.11220374 383.8200927 149.77337646 364.41546631 C150.11109029 360.48622882 150.45409641 356.55746077 150.79706764 352.62867928 C152.67224935 331.12554932 154.41928158 309.61808769 155.95483398 288.08795166 C156.59556752 279.1126218 157.28062386 270.14479416 158.06274414 261.18041992 C159.11525346 248.99566167 159.76437816 236.79511614 160.40258789 224.58276367 C160.65485505 219.84041503 160.91046004 215.09825472 161.16821289 210.35620117 C161.23268112 209.16964432 161.29714935 207.98308746 161.36357117 206.76057434 C161.80048626 198.83569519 162.29176942 190.91581492 162.82446289 182.99682617 C162.92918663 181.42793388 162.92918663 181.42793388 163.036026 179.8273468 C163.36415747 174.92985674 163.70063799 170.03317108 164.05078125 165.13720703 C164.94913999 152.12711432 165.1185949 139.18413803 164.96508789 126.14526367 C166.14071289 125.74307617 166.14071289 125.74307617 167.34008789 125.33276367 C170.24623712 124.29711935 170.24623712 124.29711935 171.96508789 121.14526367 C172.23950161 119.01822057 172.23950161 119.01822057 172.16040039 116.69604492 C172.15395508 115.84848633 172.14750977 115.00092773 172.14086914 114.12768555 C172.12411133 113.24661133 172.10735352 112.36553711 172.09008789 111.45776367 C172.07655273 110.11875 172.07655273 110.11875 172.06274414 108.75268555 C172.03918704 106.55009702 172.00331633 104.34764642 171.96508789 102.14526367 C176.58508789 102.14526367 181.20508789 102.14526367 185.96508789 102.14526367 C185.96508789 99.17526367 185.96508789 96.20526367 185.96508789 93.14526367 C183.23564305 91.78054125 181.08659773 92.02245774 178.02999878 92.02500916 C176.13269012 92.02294716 176.13269012 92.02294716 174.197052 92.02084351 C172.78753639 92.02438289 171.37802101 92.0280177 169.96850586 92.03173828 C168.49039715 92.03202023 167.01228831 92.03186227 165.53417969 92.03129578 C161.51375299 92.03100809 157.49335594 92.03690016 153.47293615 92.04386973 C149.27420545 92.05010807 145.07547412 92.05070745 140.8767395 92.05189514 C132.92237327 92.05500704 124.96802074 92.06321852 117.01366055 92.07324463 C106.26737867 92.08649669 95.52109306 92.09190682 84.77480507 92.09774685 C67.83822241 92.1071585 50.90166866 92.12707837 33.96508789 92.14526367 C33.96508789 64.09526367 33.96508789 36.04526367 33.96508789 7.14526367 C22.74508789 7.14526367 11.52508789 7.14526367 -0.03491211 7.14526367 Z " fill="#050503" transform="translate(239.034912109375,-0.145263671875)"/>
<path d="M0 0 C3.54566306 2.73311528 5.19382424 4.66139837 6 9 C6.17794511 10.7576726 6.31646466 12.51952371 6.42828369 14.28263855 C6.49815994 15.35535507 6.56803619 16.42807159 6.64002991 17.53329468 C6.71273605 18.70719757 6.7854422 19.88110046 6.86035156 21.09057617 C6.94024826 22.33274399 7.02014496 23.5749118 7.10246277 24.85472107 C7.27648824 27.56746306 7.44917261 30.28025294 7.61966705 32.99321556 C7.89418999 37.35929843 8.17456409 41.72499432 8.45574951 46.09065247 C9.15702581 56.99288154 9.85035717 67.89561451 10.54290771 78.79840088 C11.16840065 88.64374739 11.7969466 98.48889133 12.43167305 108.33364725 C12.52933347 109.84859491 12.62688667 111.36354949 12.72433281 112.87851095 C14.37489057 138.52691411 16.24057037 164.15480583 18.30090141 189.77358961 C18.46036105 191.75968228 18.61829266 193.74589744 18.77619171 195.73211479 C18.96725367 198.1312673 19.1612621 200.53018795 19.35894012 202.9288044 C20.68823637 219.64810714 20.68823637 219.64810714 18.25 224.4375 C14.81599073 228.348455 13.26577834 228.85935796 8.0625 229.4375 C4.60853363 229.35388443 4.03130691 229.02450106 1.125 226.75 C-2.24356435 222.39068143 -3.26590133 219.33246377 -3.74829102 213.82543945 C-3.86204575 212.56088425 -3.97580048 211.29632904 -4.09300232 209.99345398 C-4.20957363 208.59593276 -4.32569319 207.19837379 -4.44140625 205.80078125 C-4.56890718 204.32649583 -4.69672764 202.85223802 -4.82484436 201.37800598 C-6.32255546 183.90986792 -7.54675921 166.41992489 -8.74895477 148.92941666 C-8.9405243 146.1435191 -9.1330574 143.35768935 -9.32574463 140.5718689 C-11.05527594 115.53303808 -12.72788165 90.49051789 -14.24525833 65.43787003 C-14.37247812 63.35381233 -14.50255793 61.26995263 -14.6335144 59.18612671 C-15.49193419 45.46106134 -16.18195325 31.73174949 -16.4140625 17.98046875 C-16.46776505 16.29876335 -16.46776505 16.29876335 -16.52255249 14.58308411 C-16.58457721 6.01766919 -16.58457721 6.01766919 -13.59912109 2.3137207 C-9.11479746 -1.67819505 -5.68729318 -1.44392418 0 0 Z " fill="#FDE5B1" transform="translate(125,130)"/>
<path d="M0 0 C19.52303023 -0.02255193 39.04604995 -0.04098205 58.56908989 -0.05181217 C67.63346701 -0.05697389 76.69783547 -0.06401423 85.76220703 -0.07543945 C93.66043132 -0.08539008 101.55864935 -0.09185434 109.45687973 -0.09408849 C113.6409782 -0.09539495 117.82505873 -0.09847675 122.00915146 -0.10573006 C125.94396372 -0.11249623 129.87875059 -0.11461573 133.81356812 -0.11310768 C135.2608059 -0.11338374 136.70804449 -0.11538533 138.15527725 -0.11920547 C140.12514895 -0.12415195 142.09503414 -0.12239538 144.06491089 -0.12025452 C145.16921888 -0.12117631 146.27352688 -0.1220981 147.41129875 -0.12304783 C150 0 150 0 152 1 C152 3.97 152 6.94 152 10 C147.38 10 142.76 10 138 10 C138.08701172 11.97033203 138.08701172 11.97033203 138.17578125 13.98046875 C138.22269048 15.71611023 138.26818939 17.45179023 138.3125 19.1875 C138.35439453 20.05181641 138.39628906 20.91613281 138.43945312 21.80664062 C138.45556641 22.64775391 138.47167969 23.48886719 138.48828125 24.35546875 C138.51446533 25.12528076 138.54064941 25.89509277 138.56762695 26.68823242 C137.91034751 29.36512664 136.87290197 31.02816949 134.87612629 32.92998791 C130.53711477 35.40465863 125.06647431 34.63865832 120.22338867 34.56762695 C118.92543365 34.56835709 117.62747864 34.56908722 116.29019165 34.56983948 C112.73860029 34.57127221 109.18785581 34.54190719 105.63646102 34.50696969 C101.92226075 34.4756815 98.20804036 34.47277354 94.49372864 34.46684265 C87.46363869 34.45131133 80.43393821 34.41029289 73.40401965 34.3600952 C65.39927435 34.30417927 57.39451031 34.27670965 49.38961828 34.25161803 C32.92614835 34.19937596 16.46321477 34.10769367 0 34 C0 22.78 0 11.56 0 0 Z " fill="#FEFEFD" transform="translate(273,92)"/>
<path d="M0 0 C11.22 0 22.44 0 34 0 C34 39.27 34 78.54 34 119 C22.78 119 11.56 119 0 119 C0 79.73 0 40.46 0 0 Z " fill="#FFF79C" transform="translate(239,7)"/>
<path d="M0 0 C0.6847641 -0.0049649 1.3695282 -0.00992981 2.07504272 -0.01504517 C4.34520466 -0.02967489 6.61529668 -0.03647066 8.88549805 -0.04199219 C10.46249901 -0.04774369 12.03949994 -0.05350142 13.61650085 -0.05926514 C16.92614061 -0.06977792 20.23575605 -0.07561853 23.54541016 -0.07910156 C27.78239203 -0.08458199 32.01905185 -0.10859896 36.25593281 -0.13707352 C39.51505972 -0.15571712 42.77410941 -0.16090644 46.03328514 -0.16243744 C47.59497015 -0.16546143 49.15665387 -0.17348147 50.71828651 -0.18662262 C52.90618838 -0.20371705 55.09330807 -0.20179487 57.28125 -0.1953125 C58.52542191 -0.19895813 59.76959381 -0.20260376 61.0514679 -0.20635986 C64.64109153 0.19542521 66.4807391 0.98523427 69.3347168 3.16113281 C72.49149085 7.89629389 71.71523622 12.61857123 70.9050293 18.03222656 C68.66526059 28.66421504 63.72470794 37.29816315 54.80737305 43.66113281 C43.02924253 50.80615986 31.07752735 53.29736381 17.5222168 50.32519531 C6.06882433 46.58274909 -2.1319321 40.52423304 -8.2590332 30.09082031 C-11.66662774 22.99166503 -14.1710688 14.07865063 -12.6652832 6.16113281 C-9.05797282 0.38943621 -6.54911317 0.03601055 0 0 Z " fill="#020101" transform="translate(226.665283203125,225.8388671875)"/>
<path d="M0 0 C2.6875 1.3125 2.6875 1.3125 5 3 C5.70898438 3.38671875 6.41796875 3.7734375 7.1484375 4.171875 C9 6 9 6 9.27734375 9.08984375 C9.16519531 10.35957031 9.05304688 11.62929688 8.9375 12.9375 C8.87731689 13.63262695 8.81713379 14.32775391 8.75512695 15.04394531 C8.5369398 17.36752343 8.2753445 19.68251717 8 22 C7.90267578 22.82967285 7.80535156 23.6593457 7.70507812 24.51416016 C4.955161 46.9703933 -1.75641134 66.23847032 -19.54296875 81.12890625 C-27.89181355 87.27439933 -36.82053681 91.1643591 -47 93 C-47 92.34 -47 91.68 -47 91 C-48.1446875 90.62875 -48.1446875 90.62875 -49.3125 90.25 C-52.44463315 88.79319388 -53.48717792 88.10526637 -55 85 C-55.67627104 80.59599105 -55.81563955 77.34559825 -53.4609375 73.4609375 C-50.34806163 70.34806163 -47.16098567 68.85535863 -43.1875 67.0625 C-30.98087257 61.21195392 -24.63109661 54.61018779 -19.90576172 41.60449219 C-16.6413245 32.06154319 -15.17025359 22.61367721 -14.6875 12.5625 C-14.29535762 7.07250669 -13.07005176 4.67297354 -9 1 C-5.93570224 -0.53214888 -3.3834358 -0.22938548 0 0 Z " fill="#FCC64E" transform="translate(375,405)"/>
<path d="M0 0 C4.20588055 2.01238304 8.18486032 4.36339288 12.1875 6.75 C13.26708984 7.37132812 14.34667969 7.99265625 15.45898438 8.6328125 C20.55347066 11.63068525 24.61265071 14.03496103 28 19 C28.49274642 23.02409578 28.09425527 25.5632515 26 29 C24.38696289 30.27685547 24.38696289 30.27685547 22.47265625 31.3671875 C21.76794189 31.77533691 21.06322754 32.18348633 20.3371582 32.60400391 C19.586521 33.02343262 18.83588379 33.44286133 18.0625 33.875 C16.91430786 34.52927979 16.91430786 34.52927979 15.74291992 35.19677734 C14.20821971 36.06881379 12.67089565 36.93625026 11.13085938 37.79882812 C9.2877076 38.83781835 7.46236226 39.90827904 5.640625 40.984375 C4.70734375 41.52578125 3.7740625 42.0671875 2.8125 42.625 C2.01457031 43.09164062 1.21664062 43.55828125 0.39453125 44.0390625 C-2.58449927 45.23456251 -4.81623021 45.29415264 -8 45 C-10.69990662 43.20006226 -12.5418865 41.916227 -14 39 C-14.549155 34.97286336 -14.2180649 33.34072641 -12 29.875 C-8.92418278 26.5066699 -5.15175582 24.75136102 -1 23 C-3.71419448 20.06458591 -6.7042484 18.32888777 -10.16015625 16.37890625 C-13.20380277 14.09778688 -13.88873906 11.74703774 -14.4375 8.0625 C-13.85131947 3.9592363 -12.12521724 2.6043477 -9 0 C-5.85054241 -1.57472879 -3.24944183 -0.97814471 0 0 Z " fill="#040302" transform="translate(176,174)"/>
<path d="M0 0 C2.65559283 0.02964777 4.22773609 0.09211265 6.45703125 1.56640625 C8.70824158 4.05117154 9.71104504 6.22541191 10.3125 9.5 C9.57140293 13.37017359 8.62568135 14.69875586 5.75 17.4375 C2.49566665 19.58495195 -0.84204793 21.54491593 -4.25 23.4375 C-3.11111328 24.01757812 -3.11111328 24.01757812 -1.94921875 24.609375 C-0.95535156 25.13015625 0.03851563 25.6509375 1.0625 26.1875 C2.04863281 26.69796875 3.03476562 27.2084375 4.05078125 27.734375 C6.74229445 29.43263803 8.14193405 30.71986855 9.75 33.4375 C10.33490372 37.36471068 10.09594305 38.91858543 7.875 42.25 C5.18011688 45.02414439 4.39789427 45.38564498 0.51660156 45.69628906 C-3.70214059 45.40643512 -5.88547796 44.41474376 -9.515625 42.296875 C-10.65257812 41.63816406 -11.78953125 40.97945312 -12.9609375 40.30078125 C-13.54198242 39.95354004 -14.12302734 39.60629883 -14.72167969 39.24853516 C-16.49967654 38.187693 -18.29102261 37.15299807 -20.0859375 36.12109375 C-29.95775602 30.33067628 -29.95775602 30.33067628 -32.25 26.4375 C-32.75922791 22.43642357 -32.83394502 20.30671376 -30.55932617 16.92089844 C-28.1351831 14.31402844 -25.97653944 12.84339318 -22.86328125 11.140625 C-21.84298828 10.57472656 -20.82269531 10.00882813 -19.77148438 9.42578125 C-18.71251953 8.85214844 -17.65355469 8.27851563 -16.5625 7.6875 C-14.45381557 6.52715227 -12.34570983 5.36575205 -10.23828125 4.203125 C-9.30540283 3.69555664 -8.37252441 3.18798828 -7.41137695 2.66503906 C-3.00833651 0.16436276 -3.00833651 0.16436276 0 0 Z " fill="#030301" transform="translate(340.25,173.5625)"/>
<path d="M0 0 C4.13478421 2.52291918 7.18195101 5.46768068 9 10 C9.71951251 14.60153351 9.43337657 18.11657853 7.375 22.3125 C4.05215511 26.07256133 1.5015961 28.56165386 -3.5859375 29.453125 C-8.58025786 29.75415253 -12.09390812 29.52556497 -16.0625 26.3125 C-19.85419678 22.42102173 -20.85832253 19.48761339 -21.375 14.0625 C-21.2533715 9.75685125 -19.78850531 7.31606036 -17 4 C-11.52248401 -0.94312418 -7.05928997 -1.91993956 0 0 Z " fill="#68372E" transform="translate(262,446)"/>
<path d="M0 0 C4.14250101 2.52762773 7.16316683 5.46856723 9 10 C9.45334816 15.62151717 9.18933562 19.16100802 6 24 C0.90765314 28.59553253 -2.40426196 29.46728928 -9.1640625 29.4140625 C-13.71069548 28.75022903 -16.19510898 26.51871059 -19 23 C-21.41935895 19.00279825 -21.72865282 14.57881834 -21 10 C-16.37952389 1.10130527 -9.66649058 -2.62902895 0 0 Z " fill="#68362E" transform="translate(318,446)"/>
<path d="M0 0 C3.68851135 2.30456745 7.03314955 5.0662991 9 9 C9.52113171 14.22840334 9.64273534 18.64036754 7.375 23.4375 C3.54435576 27.57056352 0.34929325 30.1914907 -5.375 30.625 C-10.707188 30.39041982 -14.37850503 27.78650313 -18 24 C-20.93726966 19.38704207 -20.86418134 14.27448608 -20 9 C-15.73232703 1.18517028 -8.64130603 -1.74376131 0 0 Z " fill="#68362E" transform="translate(234,401)"/>
<path d="M0 0 C4.15676951 1.43888176 7.3577149 3.53587689 10.08203125 7.0625 C12.03974886 11.19453376 11.70520387 15.57764673 11 20 C8.70321747 24.85857844 5.82159389 27.63468979 1 30 C-3.68644179 30.82454452 -7.02866591 30.47650352 -11.3125 28.375 C-15.07256133 25.05215511 -17.56165386 22.5015961 -18.453125 17.4140625 C-18.75893242 12.34043936 -18.52166285 8.91188864 -15.1875 4.9375 C-10.36572935 0.06810693 -6.65128434 -0.71874942 0 0 Z " fill="#68362E" transform="translate(287,401)"/>
<path d="M0 0 C4.85978996 2.29735525 7.59883576 5.19767151 10 10 C10.94742987 15.32263972 10.01777172 19.47334242 7 24 C4.11036429 27.40828827 2.57739271 28.70862051 -1.8125 29.51953125 C-7.02686401 29.79980332 -10.96556807 29.67841347 -15.125 26.3125 C-18.85812376 22.41588177 -19.86197256 19.44928807 -20.375 14.0625 C-20.2214332 8.62623516 -17.39148938 5.6023211 -13.9375 1.625 C-9.39025114 -0.89049937 -5.07641098 -0.73160041 0 0 Z " fill="#68362E" transform="translate(205,446)"/>
<path d="M0 0 C6.46944334 5.44021372 6.46944334 5.44021372 7.1328125 9.8671875 C7.31838416 14.43225043 7.09478428 17.58314863 5.125 21.75 C1.22379661 25.95919313 -1.9151186 28.5183043 -7.75 28.8125 C-13.5848814 28.5183043 -16.72379661 25.95919313 -20.625 21.75 C-22.9328091 16.86809614 -23.27206139 12.61492373 -22.25 7.3125 C-20.20129264 3.48733875 -17.55682115 1.1034707 -13.875 -1.125 C-8.51448122 -2.2736826 -4.84227281 -2.51425704 0 0 Z " fill="#68362E" transform="translate(180.25,402.6875)"/>
<path d="M0 0 C3.35257301 2.23504867 6.07433994 4.20637281 7.8125 7.875 C8.73153513 13.24536179 8.50811394 17.48377211 6.0625 22.375 C2.2187595 26.64582278 -0.64834352 28.68336555 -6.5 29.125 C-11.85180237 28.76216594 -14.90699363 27.29393949 -18.5 23.3125 C-21.9104359 18.38631481 -22.05507686 13.76154957 -21.1875 7.875 C-16.6502629 -0.49006904 -8.88039474 -3.13425697 0 0 Z " fill="#68362E" transform="translate(346.1875,402.125)"/>
</svg>
